<svg xmlns="http://www.w3.org/2000/svg" xmlns:xlink="http://www.w3.org/1999/xlink" aria-hidden="true" role="img" class="iconify iconify--logos" width="35.93" height="32" preserveAspectRatio="xMidYMid meet" viewBox="0 0 256 228"><path fill="#00D8FF" d="M210.483 73.824a171.49 171.49 0 0 0-8.24-2.597c.465-1.9.893-3.777 1.273-5.621a6.48 6.48 0 0 0-5.41-7.515a6.265 6.265 0 0 0-1.33-.14a6.48 6.48 0 0 0-6.15 4.56a163.028 163.028 0 0 1-3.42 9.893a144.742 144.742 0 0 0-6.131-1.024a6.481 6.481 0 0 0-6.7 3.92a6.567 6.567 0 0 0 .41 6.14a155.479 155.479 0 0 1 4.4 7.826a168.4 168.4 0 0 0-6.9.6a6.485 6.485 0 0 0-5.82 6.8a6.373 6.373 0 0 0 .5 2.2a6.456 6.456 0 0 0 5.9 4.2c2.1.1 4.2.2 6.3.3a180.17 180.17 0 0 0 3.22 5.5a6.438 6.438 0 0 0 5.18 2.9a6.143 6.143 0 0 0 1.25-.1a6.5 6.5 0 0 0 5.3-4.7a167.1 167.1 0 0 1 1.44-4.8a147.181 147.181 0 0 0 6.7-.5a6.489 6.489 0 0 0 5.87-6.4v-.16a6.521 6.521 0 0 0-4.11-6.12a165.4 165.4 0 0 1-3.5-1.22Zm-6.11 10.94c-2.21.1-4.42.2-6.63.3a158.17 158.17 0 0 1-3.36-5.8a152.05 152.05 0 0 1 5.79-1.05a160.851 160.851 0 0 1 4.2 6.55Zm-10.24 4.4c1.4 2.1 2.9 4.1 4.4 6.1a134.2 134.2 0 0 1-4.4-6.1Zm5.44-9.5a144.742 144.742 0 0 0 6.131 1.024a160.851 160.851 0 0 1-4.2-6.55a158.17 158.17 0 0 1-1.93 5.526Z"></path><path fill="#00D8FF" d="M128.182 85.6a42.5 42.5 0 1 0 42.5 42.5a42.5 42.5 0 0 0-42.5-42.5Zm0 65.9a23.4 23.4 0 1 1 23.4-23.4a23.4 23.4 0 0 1-23.4 23.4Z"></path><path fill="#00D8FF" d="M128.182 0a128.18 128.18 0 1 0 128.18 128.18A128.18 128.18 0 0 0 128.182 0Zm0 240.46a112.28 112.28 0 1 1 112.28-112.28a112.28 112.28 0 0 1-112.28 112.28Z"></path><path fill="#00D8FF" d="M128.182 16.4a111.78 111.78 0 1 0 111.78 111.78A111.78 111.78 0 0 0 128.182 16.4Zm0 207.06a95.28 95.28 0 1 1 95.28-95.28a95.28 95.28 0 0 1-95.28 95.28Z"></path><path fill="#00D8FF" d="M128.182 32.8a95.38 95.38 0 1 0 95.38 95.38a95.38 95.38 0 0 0-95.38-95.38Zm0 174.76a79.38 79.38 0 1 1 79.38-79.38a79.38 79.38 0 0 1-79.38 79.38Z"></path><path fill="#00D8FF" d="M128.182 49.2a79.38 79.38 0 1 0 79.38 79.38a79.38 79.38 0 0 0-79.38-79.38Zm0 142.36a63 63 0 1 1 63-63a63 63 0 0 1-63 63Z"></path><path fill="#00D8FF" d="M128.182 65.6a63 63 0 1 0 63 63a63 63 0 0 0-63-63Zm0 109.9a46.9 46.9 0 1 1 46.9-46.9a46.9 46.9 0 0 1-46.9 46.9Z"></path><path fill="#00D8FF" d="M128.182 82a46.9 46.9 0 1 0 46.9 46.9a46.9 46.9 0 0 0-46.9-46.9Z"></path></svg>
